<svg width="25" height="25" viewBox="0 0 25 25" fill="none" xmlns="http://www.w3.org/2000/svg">
<path d="M4.5 12.2256C4.5 11.8459 4.78215 11.5322 5.14823 11.4825L5.25 11.4756L18.434 11.4762L13.671 6.73271C13.3775 6.44045 13.3765 5.96558 13.6687 5.67206C13.9344 5.40522 14.351 5.38011 14.6451 5.59734L14.7294 5.66977L20.7794 11.6938C20.8181 11.7323 20.8517 11.774 20.8802 11.818C20.8883 11.8313 20.8965 11.8448 20.9042 11.8587C20.9114 11.8705 20.9178 11.8828 20.9239 11.8953C20.9324 11.9134 20.9407 11.9321 20.9482 11.9512C20.9543 11.9659 20.9594 11.9802 20.964 11.9947C20.9696 12.0125 20.9749 12.0316 20.9796 12.051C20.983 12.0645 20.9857 12.0775 20.9881 12.0906C20.9914 12.11 20.9943 12.1301 20.9963 12.1504C20.998 12.166 20.9991 12.1813 20.9997 12.1967C20.9998 12.2061 21 12.2158 21 12.2256L20.9996 12.2547C20.9991 12.2694 20.998 12.2841 20.9966 12.2988L21 12.2256C21 12.273 20.9956 12.3193 20.9872 12.3642C20.9853 12.3749 20.983 12.3859 20.9804 12.3969C20.9751 12.4194 20.9689 12.4412 20.9618 12.4625C20.9584 12.4731 20.9543 12.4844 20.95 12.4956C20.9412 12.5182 20.9317 12.5397 20.9212 12.5607C20.9163 12.5705 20.9109 12.5808 20.9052 12.5911C20.8958 12.6077 20.8861 12.6235 20.8759 12.639C20.8687 12.6499 20.8607 12.6613 20.8524 12.6724L20.8459 12.6811C20.8257 12.7075 20.8038 12.7325 20.7803 12.756L20.7794 12.7567L14.7294 18.7817C14.4359 19.074 13.9611 19.073 13.6688 18.7795C13.4031 18.5127 13.3797 18.0959 13.5982 17.8028L13.671 17.7188L18.432 12.9762L5.25 12.9756C4.83579 12.9756 4.5 12.6399 4.5 12.2256Z" fill="white"/>
</svg>
